# xmcd
#
# Track frame offsets:
#	150
#	12858
#	27139
#	39529
#	55462
#	69146
#	80839
#	96184
#	112702
#	128670
#	142424
#
# Disc length: 2144 seconds
#
# Revision: 1
# Processed by: cddbd v1.5.1PL0 Copyright (c) Steve Scherf et al.
# Submitted via: EasyCDDAExtractor 6.2.0.3
#
DISCID=8e085e0b
DTITLE=Archie Freeman - Archie Freeman's Country Fiddle Goes To The City
DYEAR=1900
DGENRE=Country
TTITLE0=Harbor Lights
TTITLE1=Tennessee Waltz
TTITLE2=Red Wing
TTITLE3=Somewhere My Love
TTITLE4=My Happiness
TTITLE5=Mansion On The Hill
TTITLE6=Tammy
TTITLE7=Faded Love
TTITLE8=Westphalia Waltz
TTITLE9=Maiden's Prayer
TTITLE10=Anniversary Waltz
EXTD=
EXTT0=
EXTT1=
EXTT2=
EXTT3=
EXTT4=
EXTT5=
EXTT6=
EXTT7=
EXTT8=
EXTT9=
EXTT10=
PLAYORDER=
